<svg width="552" height="577" viewBox="0 0 552 577" fill="none" xmlns="http://www.w3.org/2000/svg">
  <path d="M516 282C516 414.548 408.548 522 276 522C143.452 522 36 414.548 36 282C36 149.452 143.452 42 276 42C408.548 42 516 149.452 516 282Z" fill="#FFDBDB"/>
  <path d="M411.868 204.129C419.552 280.647 380.041 294.926 290.565 308.002C208.702 340.675 154.011 353.708 119.136 281.018C95.9969 211.886 141.098 150.287 228.037 121.188C314.976 92.0893 396.601 133.313 411.868 204.129Z" fill="#F9F7F7"/>
  <path d="M165.93 274.775C155.35 265.067 163.105 243.869 176.14 229.664C189.174 215.459 200.269 213.742 210.849 223.451C221.43 233.159 226.753 244.575 213.718 258.78C200.683 272.985 176.51 284.484 165.93 274.775Z" fill="#C4C4C4"/>
  <path d="M358.47 114.541C354.345 131.157 342.302 123.922 326.221 119.931C310.141 115.94 296.112 116.704 300.236 100.087C304.361 83.4705 320.74 73.2355 336.821 77.2267C352.901 81.2179 362.594 97.9239 358.47 114.541Z" fill="#C4C4C4"/>
  <path d="M181.824 127.174C192.556 142.734 178.917 146.615 165.278 156.023C151.639 165.43 143.166 176.801 132.433 161.241C121.7 145.681 124.056 125.441 137.695 116.034C151.334 106.626 171.091 111.614 181.824 127.174Z" fill="#C4C4C4"/>
  <path d="M367.027 209.283C368.353 223.581 350.946 219.39 331.423 221.2C311.901 223.01 300.454 220.458 299.128 206.16C297.802 191.862 308.115 182.185 327.638 180.375C347.16 178.565 365.701 194.985 367.027 209.283Z" fill="#C4C4C4"/>
  <circle cx="322.227" cy="209.227" r="6.5" transform="rotate(-18.5058 322.227 209.227)" fill="#4B4B4B"/>
  <path d="M178.718 292.421C181.628 297.115 173.967 304.472 165.987 309.419C158.008 314.367 149.18 314.572 146.269 309.878C143.359 305.185 147.469 297.369 155.448 292.421C163.428 287.474 175.807 287.727 178.718 292.421Z" fill="#FFD7D7"/>
  <path d="M386.54 332.106C393.54 392.106 336.911 483.484 291.667 501.674C221.905 529.722 260.16 419.598 219.583 372.926C198.363 320.146 274.813 339.653 315.245 316.117C355.677 292.581 386.54 304.106 386.54 332.106Z" fill="#C4C4C4"/>
  <line x1="269.628" y1="412.666" x2="331.628" y2="343.666" stroke="#F8F8F8"/>
  <line x1="257.623" y1="400.672" x2="317.623" y2="331.672" stroke="#F8F8F8"/>
  <circle cx="181.227" cy="252.227" r="6.5" transform="rotate(-18.5058 181.227 252.227)" fill="#4B4B4B"/>
  <path d="M410.094 231.565C411.524 237.225 402.518 241.916 393.859 244.105C385.2 246.293 377.021 243.48 375.59 237.82C374.16 232.161 380.02 225.799 388.679 223.61C397.338 221.422 408.664 225.906 410.094 231.565Z" fill="#FFD7D7"/>
  <line x1="296.635" y1="461.658" x2="356.635" y2="397.658" stroke="#F8F8F8"/>
  <line x1="172.841" y1="248.635" x2="206.031" y2="237.526" stroke="black"/>
  <path d="M285.889 444.296L283.567 446.937L270.754 435.67L273.075 433.029L285.889 444.296ZM292.624 428.029C293.916 429.341 294.552 430.806 294.534 432.423C294.521 434.035 293.855 435.592 292.534 437.094C291.09 438.737 289.401 439.545 287.467 439.52C285.533 439.484 283.601 438.617 281.67 436.92L280.887 436.231C279.655 435.148 278.76 433.976 278.203 432.717C277.647 431.457 277.472 430.206 277.68 428.964C277.888 427.711 278.461 426.55 279.4 425.482C280.7 424.004 282.143 423.161 283.729 422.954C285.316 422.747 286.887 423.202 288.442 424.32L286.121 426.96C285.237 426.298 284.434 426.003 283.714 426.077C282.993 426.14 282.276 426.576 281.564 427.386C280.791 428.266 280.527 429.205 280.774 430.202C281.02 431.188 281.801 432.27 283.116 433.447L284.084 434.299C285.469 435.516 286.664 436.198 287.67 436.343C288.681 436.483 289.584 436.102 290.378 435.198C291.095 434.383 291.444 433.613 291.425 432.889C291.406 432.154 291.032 431.414 290.303 430.669L292.624 428.029ZM299.643 417.456L295.186 422.525L298.618 425.543L303.849 419.594L305.97 421.459L298.417 430.048L285.604 418.781L293.141 410.21L295.279 412.09L290.064 418.022L293.117 420.707L297.575 415.638L299.643 417.456ZM309.085 408.812L313.6 412.782L311.278 415.422L298.465 404.155L302.86 399.156C303.706 398.194 304.625 397.504 305.617 397.086C306.613 396.662 307.61 396.54 308.607 396.72C309.598 396.894 310.507 397.345 311.335 398.072C312.59 399.176 313.202 400.479 313.172 401.982C313.14 403.473 312.456 404.978 311.12 406.498L309.085 408.812ZM306.946 406.932L309.02 404.573C309.634 403.875 309.937 403.2 309.928 402.547C309.925 401.888 309.618 401.291 309.008 400.754C308.38 400.202 307.71 399.941 306.998 399.97C306.285 399.999 305.637 400.334 305.053 400.975L302.925 403.395L306.946 406.932ZM323.851 395.799L319.781 400.428L321.647 403.629L319.179 406.437L310.559 390.4L312.711 387.953L329.742 394.424L327.273 397.231L323.851 395.799ZM318.269 397.835L321.086 394.631L314.874 392.024L318.269 397.835ZM339.956 382.807L337.635 385.447L324.685 383.174L333.115 390.587L330.794 393.227L317.98 381.96L320.302 379.32L333.277 381.6L324.829 374.172L327.143 371.54L339.956 382.807ZM341.983 380.502L329.17 369.235L332.637 365.292C333.627 364.166 334.767 363.384 336.057 362.947C337.345 362.499 338.678 362.438 340.055 362.765C341.427 363.086 342.708 363.771 343.899 364.818L344.489 365.336C345.68 366.384 346.522 367.561 347.016 368.869C347.514 370.171 347.627 371.492 347.353 372.833C347.079 374.174 346.453 375.407 345.473 376.533L341.983 380.502ZM333.63 368.475L342.184 375.997L343.306 374.72C344.214 373.688 344.571 372.602 344.376 371.463C344.181 370.324 343.461 369.197 342.215 368.081L341.538 367.485C340.235 366.34 339.012 365.743 337.869 365.695C336.72 365.642 335.688 366.134 334.775 367.172L333.63 368.475ZM355.841 359.417L351.771 364.047L353.637 367.248L351.169 370.055L342.549 354.019L344.701 351.572L361.731 358.043L359.263 360.85L355.841 359.417ZM350.259 361.453L353.076 358.25L346.864 355.643L350.259 361.453Z" fill="white"/>
  <line x1="313.841" y1="204.635" x2="347.031" y2="193.526" stroke="black"/>
</svg>